<svg width="31" height="30" viewBox="0 0 31 30" fill="none" xmlns="http://www.w3.org/2000/svg">
<path d="M28.6888 7.65801C27.3138 5.30215 25.4487 3.43702 23.0931 2.06218C20.7371 0.687277 18.165 0 15.3751 0C12.5855 0 10.0127 0.687488 7.65714 2.06218C5.30129 3.43695 3.43629 5.30215 2.06131 7.65801C0.686548 10.0138 -0.000869751 12.5863 -0.000869751 15.3756C-0.000869751 18.726 0.976647 21.7389 2.93217 24.4149C4.88749 27.091 7.41347 28.9429 10.5099 29.9705C10.8703 30.0374 11.1371 29.9904 11.3106 29.8305C11.4842 29.6705 11.5709 29.4701 11.5709 29.2302C11.5709 29.1901 11.5674 28.8299 11.5608 28.1491C11.5539 27.4682 11.5507 26.8743 11.5507 26.3675L11.0902 26.4472C10.7966 26.501 10.4262 26.5237 9.97899 26.5173C9.53203 26.5111 9.06802 26.4642 8.58761 26.3771C8.10698 26.2908 7.65995 26.0906 7.24615 25.7769C6.83257 25.4633 6.53896 25.0527 6.36541 24.5459L6.1652 24.0851C6.03176 23.7784 5.82167 23.4377 5.53466 23.0642C5.24764 22.6904 4.9574 22.437 4.6638 22.3035L4.52362 22.2032C4.43022 22.1365 4.34354 22.0561 4.26339 21.9627C4.18331 21.8694 4.12336 21.776 4.08332 21.6824C4.0432 21.5888 4.07644 21.512 4.18338 21.4518C4.29032 21.3916 4.48358 21.3623 4.764 21.3623L5.16426 21.4221C5.43122 21.4756 5.76143 21.6355 6.15532 21.9026C6.54899 22.1695 6.87261 22.5164 7.12624 22.9433C7.43338 23.4907 7.80342 23.9078 8.23741 24.1948C8.67106 24.4818 9.10827 24.6251 9.54865 24.6251C9.98902 24.6251 10.3694 24.5917 10.6898 24.5253C11.0099 24.4585 11.3103 24.3582 11.5907 24.2248C11.7108 23.3302 12.0379 22.6429 12.5716 22.1625C11.8109 22.0826 11.127 21.9622 10.5195 21.8021C9.91238 21.6418 9.28498 21.3816 8.63775 21.0209C7.99016 20.6607 7.45295 20.2134 7.02597 19.6797C6.59891 19.1458 6.24844 18.4449 5.97503 17.5775C5.70148 16.7098 5.56467 15.7089 5.56467 14.5744C5.56467 12.9591 6.09199 11.5846 7.14644 10.45C6.65249 9.23557 6.69912 7.8742 7.28647 6.36599C7.67355 6.24573 8.24758 6.33598 9.00828 6.63618C9.76911 6.93652 10.3262 7.1938 10.68 7.40711C11.0339 7.62036 11.3174 7.80107 11.531 7.94762C12.7725 7.60072 14.0537 7.42724 15.375 7.42724C16.6962 7.42724 17.9777 7.60072 19.2193 7.94762L19.9801 7.46735C20.5003 7.14689 21.1147 6.85321 21.8217 6.58625C22.5291 6.31943 23.07 6.24594 23.4439 6.3662C24.0443 7.87448 24.0978 9.23579 23.6037 10.4502C24.6581 11.5848 25.1856 12.9597 25.1856 14.5746C25.1856 15.7091 25.0483 16.7132 24.7752 17.5875C24.5017 18.462 24.1482 19.1623 23.7146 19.6898C23.2805 20.2172 22.7398 20.661 22.0926 21.0211C21.4452 21.3815 20.8176 21.6417 20.2105 21.802C19.6031 21.9623 18.9191 22.0828 18.1584 22.1629C18.8522 22.7633 19.1992 23.711 19.1992 25.0056V29.2296C19.1992 29.4696 19.2827 29.6699 19.4497 29.83C19.6165 29.9898 19.88 30.0369 20.2404 29.9699C23.3373 28.9424 25.8632 27.0905 27.8185 24.4143C29.7735 21.7383 30.7514 18.7255 30.7514 15.375C30.7507 12.5861 30.0629 10.0138 28.6888 7.65801Z" fill="white"/>
</svg>
