<svg width="22" height="21" viewBox="0 0 22 21" fill="none" xmlns="http://www.w3.org/2000/svg">
<path d="M10.9083 0.796143C5.29931 0.796143 0.751709 5.34374 0.751709 10.9527C0.751709 15.7119 4.02889 19.6941 8.44699 20.7961C8.39959 20.659 8.36912 20.4999 8.36912 20.3026V18.5667C7.95694 18.5667 7.26629 18.5667 7.09278 18.5667C6.3979 18.5667 5.78005 18.268 5.48043 17.7127C5.1478 17.0957 5.09025 16.152 4.26588 15.5748C4.02127 15.3826 4.20748 15.1634 4.48932 15.1931C5.00984 15.3403 5.4415 15.6975 5.84776 16.2273C6.25233 16.758 6.44276 16.8782 7.19858 16.8782C7.56506 16.8782 8.11352 16.857 8.62981 16.7758C8.90742 16.0707 9.38732 15.4216 9.97386 15.1152C6.59173 14.7673 4.97768 13.0847 4.97768 10.8003C4.97768 9.81685 5.39664 8.86552 6.10844 8.064C5.87484 7.26841 5.58115 5.6459 6.19816 5.02804C7.71995 5.02804 8.63996 6.01492 8.86087 6.28153C9.61923 6.02169 10.4521 5.87442 11.3272 5.87442C12.2041 5.87442 13.0403 6.02169 13.8003 6.28322C14.0187 6.0183 14.9396 5.02804 16.4647 5.02804C17.0843 5.64674 16.7872 7.27602 16.5511 8.06993C17.2586 8.86975 17.6751 9.81855 17.6751 10.8003C17.6751 13.083 16.0636 14.7648 12.6865 15.1143C13.6158 15.5993 14.2938 16.962 14.2938 17.9886V20.3026C14.2938 20.3907 14.2743 20.4542 14.2642 20.5295C18.2218 19.1423 21.0648 15.3843 21.0648 10.9527C21.0648 5.34374 16.5172 0.796143 10.9083 0.796143Z" fill="white"/>
</svg>
