<svg width="21" height="21" viewBox="0 0 21 21" fill="none" xmlns="http://www.w3.org/2000/svg">
<path d="M4.60957 20.7961H0.0641174V7.15978H4.60957V20.7961ZM2.33775 5.3416C1.08048 5.3416 0.0641174 4.32251 0.0641174 3.06796C0.0641174 1.81342 1.0823 0.796143 2.33775 0.796143C3.59048 0.796143 4.60957 1.81523 4.60957 3.06796C4.60957 4.32251 3.59048 5.3416 2.33775 5.3416ZM20.9732 20.7961H16.6032V14.1598C16.6032 12.5771 16.5732 10.5416 14.3314 10.5416C12.0559 10.5416 11.7059 12.2652 11.7059 14.0452V20.7961H7.33684V7.14978H11.5314V9.01432H11.5905C12.1741 7.9416 13.6005 6.81069 15.7278 6.81069C20.155 6.81069 20.9732 9.63705 20.9732 13.3116V20.7961Z" fill="white"/>
</svg>
